<svg width="860" height="220" viewBox="0 0 860 220" fill="none" xmlns="http://www.w3.org/2000/svg" role="img" aria-labelledby="connectmeLogoTitle connectmeLogoDesc">
  <title id="connectmeLogoTitle">Connect.Me logo</title>
  <desc id="connectmeLogoDesc">Gradient icon with connected nodes and Connect.Me wordmark on a transparent background.</desc>
  <defs>
    <linearGradient id="cmGradient" x1="28" y1="28" x2="832" y2="206" gradientUnits="userSpaceOnUse">
      <stop stop-color="#36D8FF"/>
      <stop offset="0.52" stop-color="#62A7FF"/>
      <stop offset="1" stop-color="#BC66FF"/>
    </linearGradient>
    <linearGradient id="cmOrb" x1="100" y1="100" x2="154" y2="154" gradientUnits="userSpaceOnUse">
      <stop stop-color="#9CE8FF"/>
      <stop offset="1" stop-color="#A57EFF"/>
    </linearGradient>
    <filter id="cmGlow" x="0" y="0" width="860" height="220" filterUnits="userSpaceOnUse" color-interpolation-filters="sRGB">
      <feGaussianBlur stdDeviation="1.1" result="blur"/>
      <feMerge>
        <feMergeNode in="blur"/>
        <feMergeNode in="SourceGraphic"/>
      </feMerge>
    </filter>
  </defs>

  <g filter="url(#cmGlow)">
    <g transform="translate(12 14)">
      <circle cx="108" cy="95" r="66" stroke="url(#cmGradient)" stroke-width="11" stroke-linecap="round"/>
      <path d="M45 129C64 100 84 81 110 72" stroke="url(#cmGradient)" stroke-width="11" stroke-linecap="round"/>
      <path d="M114 74C132 97 151 114 177 130" stroke="url(#cmGradient)" stroke-width="11" stroke-linecap="round"/>
      <path d="M108 159C126 132 149 112 179 96" stroke="url(#cmGradient)" stroke-width="11" stroke-linecap="round"/>
      <path d="M39 96C56 88 69 74 79 55" stroke="url(#cmGradient)" stroke-width="11" stroke-linecap="round"/>
      <circle cx="108" cy="96" r="22" fill="url(#cmOrb)"/>

      <g fill="url(#cmGradient)" stroke="url(#cmGradient)" stroke-width="4">
        <circle cx="33" cy="62" r="18" fill-opacity="0.2"/>
        <circle cx="108" cy="28" r="18" fill-opacity="0.2"/>
        <circle cx="183" cy="62" r="18" fill-opacity="0.2"/>
        <circle cx="183" cy="130" r="18" fill-opacity="0.2"/>
        <circle cx="108" cy="164" r="18" fill-opacity="0.2"/>
        <circle cx="33" cy="130" r="18" fill-opacity="0.2"/>
      </g>
      <g fill="url(#cmGradient)">
        <circle cx="33" cy="62" r="6"/>
        <circle cx="108" cy="28" r="6"/>
        <circle cx="183" cy="62" r="6"/>
        <circle cx="183" cy="130" r="6"/>
        <circle cx="108" cy="164" r="6"/>
        <circle cx="33" cy="130" r="6"/>
      </g>
    </g>

    <g fill="url(#cmGradient)">
      <path d="M276.6 125.2C252.2 125.2 234.2 108 234.2 83.7C234.2 59.5 252.3 42.1 276.7 42.1C290 42.1 301.5 47 309.2 55.9L296.8 67.3C291.8 61.8 285.4 59 277.9 59C263.8 59 253.4 69.2 253.4 83.7C253.4 98.2 263.8 108.4 277.9 108.4C285.4 108.4 291.8 105.5 296.8 100L309.2 111.4C301.5 120.3 290 125.2 276.6 125.2Z"/>
      <path d="M349.4 125.1C326.3 125.1 309 109.8 309 88.5C309 67.4 326.3 52.1 349.4 52.1C372.4 52.1 389.6 67.4 389.6 88.5C389.6 109.8 372.4 125.1 349.4 125.1ZM349.4 108.9C361.3 108.9 370.8 100.3 370.8 88.5C370.8 76.9 361.3 68.3 349.4 68.3C337.3 68.3 327.8 76.9 327.8 88.5C327.8 100.3 337.3 108.9 349.4 108.9Z"/>
      <path d="M451.9 53.1V124H433.8V90C433.8 75.8 426.6 69.2 415.6 69.2C403.5 69.2 395.5 76.5 395.5 92.8V124H377.4V53.1H394.7V61.4C400.3 55.6 409 52.1 418.8 52.1C435.8 52.1 451.9 61.8 451.9 53.1Z"/>
      <path d="M515 53.1V124H496.9V90C496.9 75.8 489.7 69.2 478.6 69.2C466.6 69.2 458.6 76.5 458.6 92.8V124H440.5V53.1H457.8V61.4C463.4 55.6 472.1 52.1 481.9 52.1C498.9 52.1 515 61.8 515 53.1Z"/>
      <path d="M595.7 88.8C595.7 90.2 595.5 92.7 595.4 94.3H541.1C543.1 103.2 550.8 108.8 562.2 108.8C570.1 108.8 575.8 106.4 581.1 101.4L590.7 112C583.5 120.3 572.3 125.1 561.8 125.1C537.5 125.1 522.8 109.8 522.8 88.5C522.8 67.3 537.7 52.1 560.5 52.1C582.3 52.1 595.7 66.2 595.7 88.8ZM560.5 65.8C550.6 65.8 543.4 71.7 541.6 81.2H579.5C577.9 71.9 570.7 65.8 560.5 65.8Z"/>
      <path d="M640.1 125.1C616.8 125.1 599.7 109.8 599.7 88.5C599.7 67.4 616.8 52.1 640.1 52.1C655.1 52.1 666.7 58.2 672.4 69.5L658.4 77.2C654 69.2 647.8 67.2 640 67.2C627.8 67.2 618.4 75.7 618.4 88.5C618.4 101.4 627.8 109.9 640 109.9C647.8 109.9 654 107.9 658.4 99.9L672.4 107.8C666.7 118.9 655.1 125.1 640.1 125.1Z"/>
      <path d="M712.5 120.2C708.4 123.4 702.3 125.1 696.2 125.1C680.1 125.1 670.8 116.8 670.8 100.5V68.4H659.8V54.1H670.8V37.5H688.8V54.1H706.7V68.4H688.8V100C688.8 106.4 692 109.8 697.7 109.8C700.9 109.8 704.2 108.9 706.4 107L712.5 120.2Z"/>
      <path d="M721.4 124V53.1H739.4V124H721.4Z"/>
      <path d="M782.8 125.1C759.7 125.1 742.4 109.8 742.4 88.5C742.4 67.4 759.7 52.1 782.8 52.1C805.8 52.1 823 67.4 823 88.5C823 109.8 805.8 125.1 782.8 125.1ZM782.8 108.9C794.7 108.9 804.2 100.3 804.2 88.5C804.2 76.9 794.7 68.3 782.8 68.3C770.7 68.3 761.2 76.9 761.2 88.5C761.2 100.3 770.7 108.9 782.8 108.9Z"/>
    </g>

    <text x="275" y="165" fill="#B7BCC9" font-family="Inter, Segoe UI, Arial, sans-serif" font-size="34" font-weight="600" letter-spacing="0.2">
      Learn together. Grow together.
    </text>
  </g>
</svg>
